<svg id="brc" viewBox="0 0 700 700" width="100%" height="100%" version="1.1" baseProfile="full" xmlns="http://www.w3.org/2000/svg" xmlns:xlink="http://www.w3.org/1999/xlink" xmlns:ev="http://www.w3.org/2001/xml-events"><g><g id="rotateLayer" transform="rotate(-45 275 275)"><path id="playa" fill="white" d="M 279.4228928616422 678.9194049867024 L 587.9421866719094 521.7209731303221 L 533.7752985834495 179.72470141657504 L 191.77902686970256 125.55781332811512 L 34.580595013322295 434.0771071383822 z"></path><g id="roads"><path id="Esplanade" stroke="lightgray" stroke-width="1.4412024560930294" fill="none" data-name="Esplanade" d="M 412.50591707822366 411.31316521785726 A 90.07515350581434 90.07515350581434 0 1 1 302.18683478216735 300.99408292180107"></path><path id="B" stroke="lightgray" stroke-width="1.4412024560930294" fill="none" data-name="" d="M 436.17152652349904 417.6543461571091 A 114.57559525939584 114.57559525939584 0 1 1 295.84565384291545 277.3284734765257"></path><path id="C" stroke="lightgray" stroke-width="1.4412024560930294" fill="none" data-name="" d="M 444.524094563008 419.89241001802156 A 123.22280999595402 123.22280999595402 0 1 1 293.60758998200305 268.9759054370167"></path><path id="D" stroke="lightgray" stroke-width="1.4412024560930294" fill="none" data-name="" d="M 452.87666260251694 422.13047387893397 A 131.8700247325122 131.8700247325122 0 1 1 291.3695261210906 260.6233373975077"></path><path id="E" stroke="lightgray" stroke-width="1.4412024560930294" fill="none" data-name="" d="M 461.2292306420259 424.3685377398464 A 140.51723946907038 140.51723946907038 0 1 1 289.1314622601782 252.27076935799877"></path><path id="G" stroke="lightgray" stroke-width="1.4412024560930294" fill="none" data-name="" d="M 477.9343667210439 428.84466546167124 A 157.81166894218674 157.81166894218674 0 1 1 284.6553345383533 235.56563327898084"></path><path id="H" stroke="lightgray" stroke-width="1.4412024560930294" fill="none" data-name="" d="M 486.28693476055287 431.0827293225837 A 166.4588836787449 166.4588836787449 0 1 1 282.41727067744085 227.21306523947186"></path><path id="I" stroke="lightgray" stroke-width="1.4412024560930294" fill="none" data-name="" d="M 494.6395028000618 433.3207931834961 A 175.10609841530308 175.10609841530308 0 1 1 280.17920681652845 218.8604971999629"></path><path id="J" stroke="lightgray" stroke-width="1.4412024560930294" fill="none" data-name="" d="M 502.9920708395707 435.55885704440857 A 183.75331315186125 183.75331315186125 0 1 1 277.941142955616 210.50792916045395"></path><path id="K" stroke="lightgray" stroke-width="1.4412024560930294" fill="none" data-name="" d="M 511.34463887907975 437.796920905321 A 192.40052788841945 192.40052788841945 0 1 1 275.7030790947036 202.15536112094497"></path><path id="L" stroke="lightgray" stroke-width="1.4412024560930294" fill="none" data-name="" d="M 519.6972069185887 440.0349847662334 A 201.04774262497762 201.04774262497762 0 1 1 273.4650152337911 193.80279308143602"></path><circle id="rods-road" stroke="lightgray" stroke-width="1.4412024560930294" fill="white" cx="NaN" cy="NaN" r="27.094606174548954"></circle><path id="A" stroke="lightgray" stroke-width="1.4412024560930294" fill="none" data-name="" d="M 427.81895848399006 415.4162822961967 A 105.92838052283767 105.92838052283767 0 1 1 298.0837177038279 285.6810415160346"></path><path id="F-2" stroke="lightgray" stroke-width="1.4412024560930294" fill="none" data-name="" d="M 454.6802066837201 462.5822271028337 A 149.16445420562854 149.16445420562854 0 0 1 400.08222710281945 517.1802066837344"></path><path id="F-4" stroke="lightgray" stroke-width="1.4412024560930294" fill="none" data-name="" d="M 364.1066016007447 532.0817986815491 A 149.16445420562854 149.16445420562854 0 0 1 286.89339839926583 532.0817986815491"></path><path id="F-7" stroke="lightgray" stroke-width="1.4412024560930294" fill="none" data-name="" d="M 181.41820131847558 426.6066016007589 A 149.16445420562854 149.16445420562854 0 0 1 181.41820131847558 349.39339839928004"></path><path id="F-8" stroke="lightgray" stroke-width="1.4412024560930294" fill="none" data-name="" d="M 196.3197933162903 313.4177728972053 A 149.16445420562854 149.16445420562854 0 0 1 250.91777289719099 258.8197933163045"></path><path id="2:00" stroke="lightgray" stroke-width="1.4412024560930294" d="M 412.50591707822366 411.31316521785726 L 713.8944138371721 492.0699695324474"></path><path id="2:30" stroke="lightgray" stroke-width="1.4412024560930294" d="M 403.5073711858234 433.0375767529266 L 673.7249049734975 589.047742624997"></path><path id="3:00" stroke="lightgray" stroke-width="1.4412024560930294" d="M 389.1927518603858 451.6927518604 L 609.824444304744 672.3244443047581"></path><path id="3:30" stroke="lightgray" stroke-width="1.4412024560930294" d="M 370.5375767529124 466.0073711858376 L 526.5477426249827 736.2249049735118"></path><path id="4:00" stroke="lightgray" stroke-width="1.4412024560930294" d="M 348.81316521784305 475.0059170782378 L 429.56996953243333 776.3944138371863"></path><path id="4:30" stroke="lightgray" stroke-width="1.4412024560930294" d="M 325.50000000000523 478.0751535058338 L 325.50000000000534 790.0954852499747"></path><path id="5:00" stroke="lightgray" stroke-width="1.4412024560930294" d="M 302.18683478216747 475.00591707823787 L 221.43003046757732 776.3944138371864"></path><path id="7:00" stroke="lightgray" stroke-width="1.4412024560930294" d="M 238.49408292178686 411.31316521785726 L -62.894413837161665 492.0699695324476"></path><path id="7:30" stroke="lightgray" stroke-width="1.4412024560930294" d="M 235.4248464941909 388.0000000000195 L -76.59548524995 388.0000000000196"></path><path id="8:00" stroke="lightgray" stroke-width="1.4412024560930294" d="M 238.49408292178683 364.6868347821817 L -62.89441383716172 283.93003046759156"></path><path id="8:30" stroke="lightgray" stroke-width="1.4412024560930294" d="M 247.49262881418701 342.9624232471123 L -22.72490497348724 186.95225737504217"></path><path id="9:00" stroke="lightgray" stroke-width="1.4412024560930294" d="M 261.80724813962473 324.3072481396389 L 41.17555569526667 103.67555569528054"></path><path id="9:30" stroke="lightgray" stroke-width="1.4412024560930294" d="M 280.46242324709806 309.9926288142013 L 124.45225737502767 39.77509502652714"></path><path id="10:00" stroke="lightgray" stroke-width="1.4412024560930294" d="M 302.18683478216735 300.99408292180107 L 221.43003046757704 -0.39441383714739686"></path><path id="5:30" stroke="lightgray" stroke-width="1.4412024560930294" d="M 280.4624232470981 466.00737118583766 L 110.9409843491558 759.6271163292574"></path><path id="6:30" stroke="lightgray" stroke-width="1.4412024560930294" d="M 247.49262881418707 433.0375767529266 L -46.12711632923259 602.5590156508691"></path><path id="6:00" stroke="lightgray" stroke-width="1.4412024560930294" d="M 261.8072481396247 451.69275186039994 L 157.00174393748227 556.4982560625422"></path><path id="12Promenade" stroke="lightgray" stroke-width="1.4412024560930294" d="M 325.50000000000523 388.00000000001944 L 406.51718036640926 306.98281963361535"></path><path id="3Promenade" stroke="lightgray" stroke-width="1.4412024560930294" d="M 325.50000000000523 388.00000000001944 L 406.5171803664093 469.0171803664235"></path><path id="6Promenade" stroke="lightgray" stroke-width="1.4412024560930294" d="M 325.50000000000523 388.00000000001944 L 244.48281963360114 469.0171803664234"></path><path id="9Promenade" stroke="lightgray" stroke-width="1.4412024560930294" d="M 325.50000000000523 388.00000000001944 L 244.48281963360122 306.98281963361535"></path><path id="2:15" stroke="lightgray" stroke-width="1.4412024560930294" d="M 471.29897092713867 448.39191113807874 L 511.243894468819 464.93764021699906"></path><path id="2:45" stroke="lightgray" stroke-width="1.4412024560930294" d="M 450.70041469222366 484.0696570995162 L 485.0018981695438 510.39011109937826"></path><path id="3:15" stroke="lightgray" stroke-width="1.4412024560930294" d="M 421.569657099502 513.2004146922378 L 447.89011109936416 547.501898169558"></path><path id="3:45" stroke="lightgray" stroke-width="1.4412024560930294" d="M 385.8919111380645 533.7989709271528 L 402.4376402169848 573.7438944688333"></path><path id="4:15" stroke="lightgray" stroke-width="1.4412024560930294" d="M 346.09855623492024 544.4615682375754 L 351.7419962992806 587.3277513163579"></path><path id="4:45" stroke="lightgray" stroke-width="1.4412024560930294" d="M 304.9014437650903 544.4615682375754 L 299.25800370073006 587.3277513163579"></path><path id="5:15" stroke="lightgray" stroke-width="1.4412024560930294" d="M 265.10808886194593 533.7989709271528 L 248.5623597830256 573.7438944688332"></path><path id="5:45" stroke="lightgray" stroke-width="1.4412024560930294" d="M 229.43034290050852 513.2004146922379 L 203.1098889006464 547.501898169558"></path><path id="6:15" stroke="lightgray" stroke-width="1.4412024560930294" d="M 200.29958530778686 484.06965709951623 L 165.99810183046677 510.3901110993784"></path><path id="6:45" stroke="lightgray" stroke-width="1.4412024560930294" d="M 179.70102907287185 448.3919111380788 L 139.75610553119148 464.93764021699917"></path><path id="7:15" stroke="lightgray" stroke-width="1.4412024560930294" d="M 169.03843176244922 408.59855623493434 L 126.17224868366677 414.2419962992946"></path><path id="7:45" stroke="lightgray" stroke-width="1.4412024560930294" d="M 169.03843176244925 367.4014437651044 L 126.1722486836668 361.7580037007441"></path><path id="8:15" stroke="lightgray" stroke-width="1.4412024560930294" d="M 179.7010290728718 327.60808886196014 L 139.75610553119142 311.0623597830398"></path><path id="8:45" stroke="lightgray" stroke-width="1.4412024560930294" d="M 200.2995853077868 291.93034290052276 L 165.99810183046668 265.6098889006606"></path><path id="9:15" stroke="lightgray" stroke-width="1.4412024560930294" d="M 229.43034290050844 262.79958530780107 L 203.1098889006463 228.49810183048098"></path><path id="9:45" stroke="lightgray" stroke-width="1.4412024560930294" d="M 265.1080888619458 242.20102907288606 L 248.56235978302547 202.2561055312057"></path><path id="airport-road" stroke="lightgray" stroke-width="1.4412024560930294" d="M 221.43003046757732 776.3944138371864 L 34.580595013322295 434.0771071383822"></path><circle fill="lightgray" cx="110.9409843491558" cy="759.6271163292574" r="9.007515350581434"></circle><circle fill="lightgray" cx="-46.12711632923259" cy="602.5590156508691" r="9.007515350581434"></circle></g><g><circle cx="325.50000000000523" cy="388.00000000001944" r="11.889920262767493" fill="lightgray"></circle></g><g><circle fill="lightgray" cx="NaN" cy="NaN" r="9.007515350581434"></circle><circle fill="lightgray" cx="NaN" cy="NaN" r="9.007515350581434"></circle></g><g><circle fill="lightgray" cx="NaN" cy="NaN" r="9.007515350581434"></circle><circle fill="lightgray" cx="NaN" cy="NaN" r="9.007515350581434"></circle><circle fill="lightgray" cx="NaN" cy="NaN" r="9.007515350581434"></circle></g><g><circle fill="lightgray" cx="NaN" cy="NaN" r="9.007515350581434"></circle><circle fill="lightgray" cx="NaN" cy="NaN" r="9.007515350581434"></circle><circle fill="lightgray" cx="NaN" cy="NaN" r="9.007515350581434"></circle></g><g><circle fill="lightgray" cx="NaN" cy="NaN" r="11.889920262767493"></circle><circle fill="white" cx="NaN" cy="NaN" r="9.007515350581434"></circle></g><path id="trash-fence" stroke="black" fill="none" stroke-width="1.4412024560930294" d="M 279.4228928616422 678.9194049867024 L 587.9421866719094 521.7209731303221 L 533.7752985834495 179.72470141657504 L 191.77902686970256 125.55781332811512 L 34.580595013322295 434.0771071383822 z"></path><g id="artLayer"></g><g id="campLayer"></g><g id="eventLayer"></g><g id="markerLayer"></g><g id="textLayer"></g></g></g></svg>