<svg id="brc" viewBox="0 0 700 700" width="100%" height="100%" version="1.1" baseProfile="full" xmlns="http://www.w3.org/2000/svg" xmlns:xlink="http://www.w3.org/1999/xlink" xmlns:ev="http://www.w3.org/2001/xml-events"><g><g id="rotateLayer" transform="rotate(-45 275 275)"><path id="playa" fill="white" d="M 246.01252419522112 654.3534950178001 L 553.9316719135863 497.46085286865866 L 499.8701517773063 156.12984822258582 L 158.5391471312336 102.06832808630583 L 1.6465049820920967 409.9874758046708 z"></path><g id="roads"><path id="Esplanade" stroke="lightgray" stroke-width="1.4383989619874196" fill="none" data-name="Esplanade" d="M 378.8366691180777 387.2678153636318 A 89.89993512421373 89.89993512421373 0 1 1 268.73218463626034 277.16333088181455"></path><path id="B" stroke="lightgray" stroke-width="1.4383989619874196" fill="none" data-name="Botticelli" d="M 402.4562431182253 393.5966611425385 A 114.35271747799986 114.35271747799986 0 1 1 262.4033388573536 253.54375688166692"></path><path id="C" stroke="lightgray" stroke-width="1.4383989619874196" fill="none" data-name="Cosimo" d="M 410.79256335357155 395.83037141744677 A 122.98311124992438 122.98311124992438 0 1 1 260.1696285824454 245.20743664632073"></path><path id="D" stroke="lightgray" stroke-width="1.4383989619874196" fill="none" data-name="Donnatello" d="M 419.1288835889178 398.064081692355 A 131.6135050218489 131.6135050218489 0 1 1 257.9359183075371 236.87111641097448"></path><path id="E" stroke="lightgray" stroke-width="1.4383989619874196" fill="none" data-name="Effigiare" d="M 427.465203824264 400.29779196726327 A 140.2438987937734 140.2438987937734 0 1 1 255.7022080326289 228.5347961756283"></path><path id="G" stroke="lightgray" stroke-width="1.4383989619874196" fill="none" data-name="Guild" d="M 444.1378442949564 404.7652125170797 A 157.50468633762245 157.50468633762245 0 1 1 251.2347874828124 211.86215570493584"></path><path id="H" stroke="lightgray" stroke-width="1.4383989619874196" fill="none" data-name="High Renaissance" d="M 452.47416453030263 406.998922791988 A 166.13508010954698 166.13508010954698 0 1 1 249.00107720790413 203.52583546958962"></path><path id="I" stroke="lightgray" stroke-width="1.4383989619874196" fill="none" data-name="Italic" d="M 460.8104847656489 409.2326330668962 A 174.76547388147148 174.76547388147148 0 1 1 246.7673669329959 195.1895152342434"></path><path id="J" stroke="lightgray" stroke-width="1.4383989619874196" fill="none" data-name="Justice" d="M 469.1468050009951 411.4663433418045 A 183.395867653396 183.395867653396 0 1 1 244.53365665808764 186.85319499889718"></path><path id="K" stroke="lightgray" stroke-width="1.4383989619874196" fill="none" data-name="Knowledge" d="M 477.48312523634127 413.7000536167127 A 192.0262614253205 192.0262614253205 0 1 1 242.29994638317942 178.516874763551"></path><path id="L" stroke="lightgray" stroke-width="1.4383989619874196" fill="none" data-name="Lorenzo" d="M 485.8194454716875 415.9337638916209 A 200.65665519724504 200.65665519724504 0 1 1 240.06623610827114 170.18055452820474"></path><circle id="rods-road" stroke="lightgray" stroke-width="1.4383989619874196" fill="white" cx="218.08213685408293" cy="437.91786314580924" r="27.041900485363488"></circle><path id="A" stroke="lightgray" stroke-width="1.4383989619874196" fill="none" data-name="Ano" d="M 394.1199228828791 391.3629508676303 A 105.72232370607534 105.72232370607534 0 1 1 264.6370491322619 261.8800771170131"></path><path id="F-2" stroke="lightgray" stroke-width="1.4383989619874196" fill="none" data-name="Florin" d="M 420.92891933221915 438.4371462828533 A 148.87429256569794 148.87429256569794 0 0 1 366.4371462827368 492.92891933233557"></path><path id="F-4" stroke="lightgray" stroke-width="1.4383989619874196" fill="none" data-name="Florin" d="M 330.5315022420551 507.8015240597266 A 148.87429256569794 148.87429256569794 0 0 1 253.46849775772074 507.8015240597266"></path><path id="F-7" stroke="lightgray" stroke-width="1.4383989619874196" fill="none" data-name="Florin" d="M 148.19847594016562 402.53150224217154 A 148.87429256569794 148.87429256569794 0 0 1 148.1984759401656 325.46849775783716"></path><path id="F-8" stroke="lightgray" stroke-width="1.4383989619874196" fill="none" data-name="Florin" d="M 163.07108066755663 289.56285371715546 A 148.87429256569794 148.87429256569794 0 0 1 217.56285371703896 235.0710806676731"></path><path id="2:00" stroke="lightgray" stroke-width="1.4383989619874196" d="M 378.8366691180777 387.2678153636318 L 485.8194454716875 415.9337638916209"></path><path id="2:30" stroke="lightgray" stroke-width="1.4383989619874196" d="M 369.85562761602995 408.94996756211117 L 465.7737608391169 464.32832759862686"></path><path id="3:00" stroke="lightgray" stroke-width="1.4383989619874196" d="M 355.5688537544501 427.56885375456653 L 433.8856815800708 505.8856815801871"></path><path id="3:30" stroke="lightgray" stroke-width="1.4383989619874196" d="M 336.94996756199475 441.85562761614636 L 392.3283275985104 537.7737608392333"></path><path id="4:00" stroke="lightgray" stroke-width="1.4383989619874196" d="M 315.26781536351547 450.8366691181941 L 343.9337638915046 557.8194454718039"></path><path id="4:30" stroke="lightgray" stroke-width="1.4383989619874196" d="M 291.9999999998879 453.899935124218 L 291.99999999988796 564.6566551972494"></path><path id="5:00" stroke="lightgray" stroke-width="1.4383989619874196" d="M 268.7321846362604 450.8366691181941 L 240.0662361082713 557.8194454718039"></path><path id="7:00" stroke="lightgray" stroke-width="1.4383989619874196" d="M 205.16333088169813 387.2678153636319 L 98.18055452808832 415.933763891621"></path><path id="7:30" stroke="lightgray" stroke-width="1.4383989619874196" d="M 202.10006487567418 364.0000000000044 L 91.34334480264286 364.0000000000044"></path><path id="8:00" stroke="lightgray" stroke-width="1.4383989619874196" d="M 205.16333088169813 340.7321846363768 L 98.1805545280883 312.0662361083877"></path><path id="8:30" stroke="lightgray" stroke-width="1.4383989619874196" d="M 214.14437238374583 319.0500324378975 L 118.22623916065879 263.67167240138195"></path><path id="9:00" stroke="lightgray" stroke-width="1.4383989619874196" d="M 228.43114624532572 300.43114624544205 L 150.1143184197051 222.1143184198214"></path><path id="9:30" stroke="lightgray" stroke-width="1.4383989619874196" d="M 247.05003243778106 286.1443723838623 L 191.67167240126543 190.2262391607753"></path><path id="10:00" stroke="lightgray" stroke-width="1.4383989619874196" d="M 268.73218463626034 277.16333088181455 L 240.06623610827114 170.18055452820474"></path><path id="5:30" stroke="lightgray" stroke-width="1.4383989619874196" d="M 247.0500324377811 441.8556276161464 L 178.1866821326335 561.1304491240761"></path><path id="6:30" stroke="lightgray" stroke-width="1.4383989619874196" d="M 214.14437238374586 408.94996756211117 L 94.86955087581623 477.81331786725883"></path><path id="6:00" stroke="lightgray" stroke-width="1.4383989619874196" d="M 228.43114624532566 427.5688537545665 L 123.8295145886566 532.1704854112354"></path><path id="12Promenade" stroke="lightgray" stroke-width="1.4383989619874196" d="M 291.9999999998879 364.0000000000043 L 372.859581975691 283.14041802420115"></path><path id="3Promenade" stroke="lightgray" stroke-width="1.4383989619874196" d="M 291.9999999998879 364.0000000000043 L 372.85958197569107 444.85958197580743"></path><path id="6Promenade" stroke="lightgray" stroke-width="1.4383989619874196" d="M 291.9999999998879 364.0000000000043 L 211.14041802408474 444.85958197580743"></path><path id="9Promenade" stroke="lightgray" stroke-width="1.4383989619874196" d="M 291.9999999998879 364.0000000000043 L 211.1404180240848 283.14041802420115"></path><path id="2:15" stroke="lightgray" stroke-width="1.4383989619874196" d="M 437.5153559818274 424.2744339812726 L 477.3825767987971 440.7879775377844"></path><path id="2:45" stroke="lightgray" stroke-width="1.4383989619874196" d="M 416.95686901736394 459.88277793046564 L 451.19162765228896 486.1520321579893"></path><path id="3:15" stroke="lightgray" stroke-width="1.4383989619874196" d="M 387.88277793034933 488.95686901748036 L 414.152032157873 523.1916276524053"></path><path id="3:45" stroke="lightgray" stroke-width="1.4383989619874196" d="M 352.2744339811561 509.5153559819438 L 368.7879775376679 549.3825767989135"></path><path id="4:15" stroke="lightgray" stroke-width="1.4383989619874196" d="M 312.55848696435135 520.1572119117338 L 318.1909491463962 562.9400096957694"></path><path id="4:45" stroke="lightgray" stroke-width="1.4383989619874196" d="M 271.4415130354245 520.1572119117338 L 265.8090508533798 562.9400096957694"></path><path id="5:15" stroke="lightgray" stroke-width="1.4383989619874196" d="M 231.72556601861967 509.5153559819438 L 215.21202246210783 549.3825767989135"></path><path id="5:45" stroke="lightgray" stroke-width="1.4383989619874196" d="M 196.1172220694266 488.95686901748036 L 169.8479678419029 523.1916276524054"></path><path id="6:15" stroke="lightgray" stroke-width="1.4383989619874196" d="M 167.04313098241192 459.88277793046575 L 132.808372347487 486.1520321579894"></path><path id="6:45" stroke="lightgray" stroke-width="1.4383989619874196" d="M 146.48464401794848 424.27443398127264 L 106.61742320097878 440.7879775377845"></path><path id="7:15" stroke="lightgray" stroke-width="1.4383989619874196" d="M 135.84278808815833 384.55848696446765 L 93.0599903041228 390.1909491465124"></path><path id="7:45" stroke="lightgray" stroke-width="1.4383989619874196" d="M 135.84278808815833 343.4415130355408 L 93.05999030412283 337.80905085349605"></path><path id="8:15" stroke="lightgray" stroke-width="1.4383989619874196" d="M 146.48464401794843 303.7255660187361 L 106.61742320097869 287.21202246222424"></path><path id="8:45" stroke="lightgray" stroke-width="1.4383989619874196" d="M 167.04313098241187 268.117222069543 L 132.80837234748688 241.84796784201933"></path><path id="9:15" stroke="lightgray" stroke-width="1.4383989619874196" d="M 196.11722206942648 239.04313098252834 L 169.8479678419028 204.8083723476034"></path><path id="9:45" stroke="lightgray" stroke-width="1.4383989619874196" d="M 231.72556601861956 218.4846440180649 L 215.21202246210768 178.6174232010952"></path><path id="airport-road" stroke="lightgray" stroke-width="1.4383989619874196" d="M 240.0662361082713 557.8194454718039 L 1.6465049820920967 409.9874758046708"></path><circle fill="lightgray" cx="178.1866821326335" cy="561.1304491240761" r="8.989993512421373"></circle><circle fill="lightgray" cx="94.86955087581623" cy="477.81331786725883" r="8.989993512421373"></circle></g><g><circle cx="291.9999999998879" cy="364.0000000000043" r="11.866791436396213" fill="lightgray"></circle></g><g><circle fill="lightgray" cx="291.99999999988796" cy="521.5046863376267" r="8.989993512421373"></circle><circle fill="lightgray" cx="134.49531366226546" cy="364.0000000000044" r="8.989993512421373"></circle></g><g><circle fill="lightgray" cx="403.37263177788094" cy="475.3726317779973" r="8.989993512421373"></circle><circle fill="lightgray" cx="NaN" cy="NaN" r="8.989993512421373"></circle><circle fill="lightgray" cx="NaN" cy="NaN" r="8.989993512421373"></circle></g><g><circle fill="lightgray" cx="372.85958197569107" cy="444.85958197580743" r="8.989993512421373"></circle><circle fill="lightgray" cx="211.1404180240848" cy="283.14041802420115" r="8.989993512421373"></circle><circle fill="lightgray" cx="NaN" cy="NaN" r="8.989993512421373"></circle></g><g><circle fill="lightgray" cx="218.08213685408293" cy="437.91786314580924" r="11.866791436396213"></circle><circle fill="white" cx="218.08213685408293" cy="437.91786314580924" r="8.989993512421373"></circle></g><path id="trash-fence" stroke="black" fill="none" stroke-width="1.4383989619874196" d="M 246.01252419522112 654.3534950178001 L 553.9316719135863 497.46085286865866 L 499.8701517773063 156.12984822258582 L 158.5391471312336 102.06832808630583 L 1.6465049820920967 409.9874758046708 z"></path><g id="artLayer"></g><g id="campLayer"></g><g id="eventLayer"></g><g id="markerLayer"></g><g id="textLayer"></g></g></g></svg>