<svg id="brc" viewBox="0 0 700 700" width="100%" height="100%" version="1.1" baseProfile="full" xmlns="http://www.w3.org/2000/svg" xmlns:xlink="http://www.w3.org/1999/xlink" xmlns:ev="http://www.w3.org/2001/xml-events"><g><g id="rotateLayer" transform="rotate(-45 275 275)"><path id="playa" fill="white" d="M 245.17303143405314 655.3400921961911 L 552.0174680210622 498.9950427193306 L 498.14463546039747 158.85536453959895 L 158.0049572806659 104.98253197893422 L 1.6599078038053108 411.82696856594305 z"></path><g id="roads"><path id="Esplanade" stroke="lightgray" stroke-width="1.433378607172743" fill="none" data-name="Esplanade" d="M 377.53358846989715 389.1866051486765 A 89.58616294829645 89.58616294829645 0 1 1 267.8133948513199 279.4664115300993"></path><path id="B" stroke="lightgray" stroke-width="1.433378607172743" fill="none" data-name="Breath" d="M 401.07072453371006 395.4933617491166 A 113.95359927023307 113.95359927023307 0 1 1 261.50663825087975 255.9292754662864"></path><path id="C" stroke="lightgray" stroke-width="1.433378607172743" fill="none" data-name="Ceremony" d="M 409.3779490268205 397.7192758433896 A 122.55387091326953 122.55387091326953 0 1 1 259.28072415660677 247.622050973176"></path><path id="D" stroke="lightgray" stroke-width="1.433378607172743" fill="none" data-name="Dance" d="M 417.68517351993097 399.9451899376626 A 131.154142556306 131.154142556306 0 1 1 257.0548100623338 239.31482648006556"></path><path id="E" stroke="lightgray" stroke-width="1.433378607172743" fill="none" data-name="Eulogy" d="M 425.9923980130414 402.17110403193556 A 139.75441419934245 139.75441419934245 0 1 1 254.8288959680608 231.0076019869551"></path><path id="G" stroke="lightgray" stroke-width="1.433378607172743" fill="none" data-name="Genuflect" d="M 442.6068469992623 406.6229322204815 A 156.95495748541538 156.95495748541538 0 1 1 250.37706777951485 214.39315300073423"></path><path id="H" stroke="lightgray" stroke-width="1.433378607172743" fill="none" data-name="Hallowed" d="M 450.9140714923727 408.8488463147545 A 165.55522912845183 165.55522912845183 0 1 1 248.15115368524187 206.0859285076238"></path><path id="I" stroke="lightgray" stroke-width="1.433378607172743" fill="none" data-name="Inspirit" d="M 459.22129598548315 411.0747604090275 A 174.15550077148828 174.15550077148828 0 1 1 245.92523959096889 197.77870401451338"></path><path id="J" stroke="lightgray" stroke-width="1.433378607172743" fill="none" data-name="Juju" d="M 467.5285204785936 413.30067450330046 A 182.75577241452473 182.75577241452473 0 1 1 243.6993254966959 189.47147952140296"></path><path id="K" stroke="lightgray" stroke-width="1.433378607172743" fill="none" data-name="Kundalini" d="M 475.835744971704 415.52658859757344 A 191.3560440575612 191.3560440575612 0 1 1 241.4734114024229 181.1642550282925"></path><path id="L" stroke="lightgray" stroke-width="1.433378607172743" fill="none" data-name="Lustrate" d="M 484.31603664175424 417.7988759021438 A 200.13548802649424 200.13548802649424 0 1 1 239.20112409785258 172.6839633582423"></path><circle id="rods-road" stroke="lightgray" stroke-width="1.433378607172743" fill="white" cx="217.34012779407817" cy="439.65987220591825" r="26.87584888448893"></circle><path id="A" stroke="lightgray" stroke-width="1.433378607172743" fill="none" data-name="Awe" d="M 392.76350004059964 393.26744765484364 A 105.35332762719662 105.35332762719662 0 1 1 263.7325523451527 264.23649995939684"></path><path id="F-2" stroke="lightgray" stroke-width="1.433378607172743" fill="none" data-name="Fire" d="M 419.47892670995657 440.1773429211891 A 148.3546858423789 148.3546858423789 0 0 1 365.1773429211862 494.4789267099594"></path><path id="F-4" stroke="lightgray" stroke-width="1.433378607172743" fill="none" data-name="Fire" d="M 329.3970181262058 509.2996225061546 A 148.3546858423789 148.3546858423789 0 0 1 252.60298187378794 509.29962250615466"></path><path id="F-7" stroke="lightgray" stroke-width="1.433378607172743" fill="none" data-name="Fire" d="M 147.70037749384184 404.39701812620865 A 148.3546858423789 148.3546858423789 0 0 1 147.7003774938418 327.6029818737908"></path><path id="F-8" stroke="lightgray" stroke-width="1.433378607172743" fill="none" data-name="Fire" d="M 162.521073290037 291.8226570788103 A 148.3546858423789 148.3546858423789 0 0 1 216.8226570788074 237.5210732900399"></path><path id="2:00" stroke="lightgray" stroke-width="1.433378607172743" d="M 377.53358846989715 389.1866051486765 L 484.31603664175424 417.7988759021438"></path><path id="2:30" stroke="lightgray" stroke-width="1.433378607172743" d="M 368.58389294079376 410.79308147414787 L 464.32241682973716 466.0677440132468"></path><path id="3:00" stroke="lightgray" stroke-width="1.433378607172743" d="M 354.34698332122025 429.3469833212231 L 432.51716073961 507.5171607396128"></path><path id="3:30" stroke="lightgray" stroke-width="1.433378607172743" d="M 335.793081474145 443.5838929407966 L 391.0677440132439 539.3224168297401"></path><path id="4:00" stroke="lightgray" stroke-width="1.433378607172743" d="M 314.1866051486737 452.5335884699 L 342.79887590214105 559.316036641757"></path><path id="4:30" stroke="lightgray" stroke-width="1.433378607172743" d="M 290.9999999999968 455.5861629482961 L 290.9999999999969 566.1354880264939"></path><path id="5:00" stroke="lightgray" stroke-width="1.433378607172743" d="M 267.81339485131997 452.5335884699 L 239.2011240978527 559.3160366417571"></path><path id="7:00" stroke="lightgray" stroke-width="1.433378607172743" d="M 204.46641153009645 389.18660514867656 L 97.68396335823942 417.7988759021439"></path><path id="7:30" stroke="lightgray" stroke-width="1.433378607172743" d="M 201.41383705170037 365.9999999999997 L 90.86451197350257 365.9999999999997"></path><path id="8:00" stroke="lightgray" stroke-width="1.433378607172743" d="M 204.46641153009645 342.8133948513228 L 97.6839633582394 314.20112409785554"></path><path id="8:30" stroke="lightgray" stroke-width="1.433378607172743" d="M 213.41610705919982 321.2069185258515 L 117.67758317025636 265.9322559867527"></path><path id="9:00" stroke="lightgray" stroke-width="1.433378607172743" d="M 227.6530166787734 302.65301667877617 L 149.48283926038374 224.4828392603864"></path><path id="9:30" stroke="lightgray" stroke-width="1.433378607172743" d="M 246.2069185258486 288.4161070592027 L 190.93225598674974 192.67758317025928"></path><path id="10:00" stroke="lightgray" stroke-width="1.433378607172743" d="M 267.8133948513199 279.4664115300993 L 239.20112409785258 172.6839633582423"></path><path id="5:30" stroke="lightgray" stroke-width="1.433378607172743" d="M 246.20691852584866 443.58389294079666 L 177.4943315445054 562.5975847119792"></path><path id="6:30" stroke="lightgray" stroke-width="1.433378607172743" d="M 213.41610705919987 410.79308147414787 L 94.40241528801732 479.5056684554912"></path><path id="6:00" stroke="lightgray" stroke-width="1.433378607172743" d="M 227.65301667877333 429.3469833212231 L 123.41646961892923 533.583530381067"></path><path id="12Promenade" stroke="lightgray" stroke-width="1.433378607172743" d="M 290.9999999999968 365.99999999999966 L 371.577362784593 285.4226372154034"></path><path id="3Promenade" stroke="lightgray" stroke-width="1.433378607172743" d="M 290.9999999999968 365.99999999999966 L 371.57736278459305 446.57736278459583"></path><path id="6Promenade" stroke="lightgray" stroke-width="1.433378607172743" d="M 290.9999999999968 365.99999999999966 L 210.42263721540056 446.57736278459583"></path><path id="9Promenade" stroke="lightgray" stroke-width="1.433378607172743" d="M 290.9999999999968 365.99999999999966 L 210.42263721540064 285.42263721540337"></path><path id="2:15" stroke="lightgray" stroke-width="1.433378607172743" d="M 436.0074727469513 426.0640618572352 L 475.90108111683253 442.58853549604083"></path><path id="2:45" stroke="lightgray" stroke-width="1.433378607172743" d="M 415.52073979631996 461.5481242088241 L 449.7781579366325 487.834765686366"></path><path id="3:15" stroke="lightgray" stroke-width="1.433378607172743" d="M 386.5481242088213 490.5207397963227 L 412.8347656863632 524.7781579366354"></path><path id="3:45" stroke="lightgray" stroke-width="1.433378607172743" d="M 351.0640618572323 511.00747274695414 L 367.58853549603793 550.9010811168354"></path><path id="4:15" stroke="lightgray" stroke-width="1.433378607172743" d="M 311.4867329506282 521.6121860660596 L 317.1229231801969 564.4233011824072"></path><path id="4:45" stroke="lightgray" stroke-width="1.433378607172743" d="M 270.51326704936554 521.6121860660596 L 264.8770768197969 564.4233011824072"></path><path id="5:15" stroke="lightgray" stroke-width="1.433378607172743" d="M 230.9359381427613 511.00747274695414 L 214.41146450395564 550.9010811168354"></path><path id="5:45" stroke="lightgray" stroke-width="1.433378607172743" d="M 195.45187579117237 490.5207397963228 L 169.16523431363052 524.7781579366354"></path><path id="6:15" stroke="lightgray" stroke-width="1.433378607172743" d="M 166.4792602036738 461.54812420882416 L 132.22184206336118 487.83476568636604"></path><path id="6:45" stroke="lightgray" stroke-width="1.433378607172743" d="M 145.99252725304243 426.0640618572353 L 106.09891888316116 442.58853549604095"></path><path id="7:15" stroke="lightgray" stroke-width="1.433378607172743" d="M 135.38781393393685 386.4867329506309 L 92.57669881758932 392.12292318019956"></path><path id="7:45" stroke="lightgray" stroke-width="1.433378607172743" d="M 135.38781393393685 345.51326704936827 L 92.57669881758935 339.8770768197996"></path><path id="8:15" stroke="lightgray" stroke-width="1.433378607172743" d="M 145.99252725304237 305.93593814276414 L 106.0989188831611 289.4114645039585"></path><path id="8:45" stroke="lightgray" stroke-width="1.433378607172743" d="M 166.4792602036737 270.4518757911752 L 132.2218420633611 244.16523431363336"></path><path id="9:15" stroke="lightgray" stroke-width="1.433378607172743" d="M 195.45187579117228 241.47926020367663 L 169.16523431363038 207.22184206336402"></path><path id="9:45" stroke="lightgray" stroke-width="1.433378607172743" d="M 230.9359381427612 220.99252725304527 L 214.41146450395553 181.098918883164"></path><path id="airport-road" stroke="lightgray" stroke-width="1.433378607172743" d="M 239.2011240978527 559.3160366417571 L 1.6599078038053108 411.82696856594305"></path><circle fill="lightgray" cx="177.4943315445054" cy="562.5975847119792" r="4.479308147414822"></circle><circle fill="lightgray" cx="94.40241528801732" cy="479.5056684554912" r="4.479308147414822"></circle></g><g><circle cx="290.9999999999968" cy="365.99999999999966" r="11.82537350917513" fill="lightgray"></circle></g><g><circle fill="lightgray" cx="318.25494234312976" cy="520.5704590053382" r="4.479308147414822"></circle><circle fill="lightgray" cx="318.25494234312976" cy="520.5704590053382" r="4.479308147414822"></circle></g><g><circle fill="lightgray" cx="401.98391477878033" cy="476.9839147787831" r="4.479308147414822"></circle><circle fill="lightgray" cx="172.41444722266647" cy="484.5855527773299" r="4.479308147414822"></circle><circle fill="lightgray" cx="180.01608522121342" cy="255.01608522121612" r="4.479308147414822"></circle></g><g><circle fill="lightgray" cx="371.57736278459305" cy="446.57736278459583" r="4.479308147414822"></circle><circle fill="lightgray" cx="210.42263721540064" cy="285.42263721540337" r="4.479308147414822"></circle><circle fill="lightgray" cx="NaN" cy="NaN" r="4.479308147414822"></circle></g><g><circle fill="lightgray" cx="217.34012779407817" cy="439.65987220591825" r="11.82537350917513"></circle><circle fill="white" cx="217.34012779407817" cy="439.65987220591825" r="4.479308147414822"></circle></g><path id="trash-fence" stroke="black" fill="none" stroke-width="1.433378607172743" d="M 245.17303143405314 655.3400921961911 L 552.0174680210622 498.9950427193306 L 498.14463546039747 158.85536453959895 L 158.0049572806659 104.98253197893422 L 1.6599078038053108 411.82696856594305 z"></path><g id="artLayer"></g><g id="campLayer"></g><g id="eventLayer"></g><g id="markerLayer"></g><g id="textLayer"></g></g></g></svg>